<svg width="60" height="60" viewBox="0 0 60 60" fill="none" xmlns="http://www.w3.org/2000/svg">
<path fill-rule="evenodd" clip-rule="evenodd" d="M20.0002 16V54L6.96344 53.9272C6.96344 53.9272 2.15824 52.6799 1.48626 48.5461C0.814281 44.4124 1.10376 23.8902 1.10376 23.8902C1.10376 23.8902 0.723333 13.1261 4.19549 11.7353C7.66765 10.3446 15.5641 10.0837 15.5641 10.0837V12.808V15.5322L20.0002 16Z" fill="#FFE9E9"/>
<path fill-rule="evenodd" clip-rule="evenodd" d="M6.94952 16C9.37607 16.0119 47.7749 16.0029 57.0127 16.0005C58.1175 16.0002 59 16.8958 59 18.0006V52C59 53.1046 58.1046 54 57 54H9C4.58172 54 1 50.4183 1 46L1 18C1 13.5817 4.58172 10 9 10H47.0794C48.184 10 49.0794 10.8954 49.0794 12V15.9512C49.0794 15.9512 4.18973 15.9864 6.94952 16Z" stroke="#C01217" stroke-width="2" stroke-linecap="round" stroke-linejoin="round"/>
<path fill-rule="evenodd" clip-rule="evenodd" d="M34.0377 28.6374C34.1872 28.2531 34.5573 28 34.9697 28H45.0327C45.4439 28 45.8132 28.2517 45.9635 28.6343L47.754 33.1919C47.9028 33.5705 47.8074 34.0014 47.5128 34.2818L40.6924 40.7751C40.3075 41.1415 39.7032 41.1429 39.3167 40.7782L32.4899 34.3372C32.1938 34.0578 32.0966 33.6267 32.2442 33.2473L34.0377 28.6374Z" fill="#FF8C8C"/>
</svg>
