<svg width="60" height="60" viewBox="0 0 60 60" fill="none" xmlns="http://www.w3.org/2000/svg">
<path fill-rule="evenodd" clip-rule="evenodd" d="M19.71 31.0142C21.7899 31.029 23.9034 31.06 25.4868 31.087C26.9588 31.1122 28.1595 32.2625 28.2577 33.7314C28.2636 33.8208 28.2654 33.9095 28.2631 33.9974C35.3214 33.8573 41 28.0918 41 21C41 13.8203 35.1797 8 28 8C20.8203 8 15 13.8203 15 21C15 25.0289 16.8327 28.6297 19.71 31.0142Z" fill="#FFE9E9"/>
<path d="M23.1129 37.2871C24.6607 37.7508 26.3013 38 28 38C37.3888 38 45 30.3888 45 21C45 11.6112 37.3888 4 28 4C18.6112 4 11 11.6112 11 21C11 24.3103 12.2361 28.2138 13.8727 30.8265" stroke="#C01217" stroke-width="2" stroke-linecap="round" stroke-linejoin="round"/>
<path d="M25.5 27V15" stroke="#C01217" stroke-width="2" stroke-linecap="round" stroke-linejoin="round"/>
<path d="M26 15H29C30.6569 15 32 16.3431 32 18V18C32 19.6569 30.6569 21 29 21H26V15Z" stroke="#C01217" stroke-width="2" stroke-linecap="round" stroke-linejoin="round"/>
<path d="M26 18.5H23" stroke="#C01217" stroke-width="2" stroke-linecap="round" stroke-linejoin="round"/>
<path d="M34 18.5H32" stroke="#C01217" stroke-width="2" stroke-linecap="round" stroke-linejoin="round"/>
<path d="M3.75789 48.0038C3.75789 48.0038 8.60294 52.313 16.0652 53.2676C17.7443 53.6243 24.686 54.148 28.5483 54.4202C30.2425 54.5396 31.9176 54.0372 33.2739 53.015L45.8201 43.5586C47.3079 42.4372 47.6352 40.3365 46.559 38.8156V38.8156C45.5424 37.3789 43.6065 36.9391 42.0688 37.7955L31.2275 43.8338C30.9583 43.9837 30.6335 43.9952 30.3543 43.8647L17.4479 37.8316L25.791 36.739C27.2779 36.5443 28.3577 35.2277 28.2577 33.7314V33.7314C28.1595 32.2625 26.9588 31.1122 25.4868 31.087C22.3836 31.034 17.2443 30.9659 14.3124 31.0341C9.91223 31.1364 5.66201 33.4815 3 38.777" stroke="#C01217" stroke-width="2" stroke-linecap="round" stroke-linejoin="round"/>
</svg>
